------------------------------:TPB IS BENEDICTION TO ME :--------------------------


Screen Link :---
 
http://www.desiupload.com/show.php/872849_DesiIndianCuteGirlSexthumb.jpg.html


General Info :---

Format                           : Windows Media
File size                        : 150 MiB
Duration                         : 19mn 53s
Overall bit rate mode            : Constant
Overall bit rate                 : 1 054 Kbps
Maximum Overall bit rate         : 1 061 Kbps
Encoded date                     : UTC 2004-06-03 07:09:41.760
SfOriginalFPS                    : 300000

Video
ID                               : 2
Format                           : VC-1
Format profile                   : MP@LL
Codec ID                         : WMV3
Codec ID/Info                    : Windows Media Video 9
Codec ID/Hint                    : WMV3
Description of the codec         : Windows Media Video 9
Duration                         : 19mn 53s
Bit rate mode                    : Constant
Bit rate                         : 985 Kbps
Width                            : 320 pixels
Height                           : 240 pixels
Display aspect ratio             : 4:3
Frame rate                       : 30.000 fps
Bit depth                        : 8 bits
Scan type                        : Progressive
Compression mode                 : Lossy
Bits/(Pixel*Frame)               : 0.427
Stream size                      : 140 MiB (93%)

Audio
ID                               : 1
Format                           : WMA
Format version                   : Version 2
Codec ID                         : 161
Codec ID/Info                    : Windows Media Audio
Description of the codec         : Windows Media Audio 9 -  64 kbps, 44 kHz, stereo (A/V) 1-pass CBR
Duration                         : 19mn 53s
Bit rate mode                    : Constant
Bit rate                         : 64.0 Kbps
Channel(s)                       : 2 channels
Sampling rate                    : 44.1 KHz
Bit depth                        : 16 bits
Stream size                      : 9.11 MiB (6%)


                                Dedicated To Ekarth


------------------------------:TPB IS BENEDICTION TO ME :--------------------------



